HIERARCHY
ROOT Root
{
  OFFSET 0.0 0.0 0.0
  CHANNELS 6 Xposition Yposition Zposition Zrotation Yrotation Xrotation
  JOINT Hips
  {
    OFFSET 0.0 100.0 0.0
    CHANNELS 6 Xposition Yposition Zposition Zrotation Yrotation Xrotation
    JOINT Spine1
    {
      OFFSET -0.013727 5.003763 -0.053727
      CHANNELS 3 Zrotation Yrotation Xrotation
      JOINT Spine2
      {
        OFFSET -0.0 7.125301 -0.029825
        CHANNELS 3 Zrotation Yrotation Xrotation
        JOINT Chest
        {
          OFFSET -1e-06 7.550063 -0.815971
          CHANNELS 3 Zrotation Yrotation Xrotation
          JOINT Neck1
          {
            OFFSET -0.181677 26.311295 -0.553348
            CHANNELS 3 Zrotation Yrotation Xrotation
            JOINT Neck2
            {
              OFFSET -3e-06 7.709397 2.302585
              CHANNELS 3 Zrotation Yrotation Xrotation
              JOINT Head
              {
                OFFSET -5e-06 6.128916 1.953709
                CHANNELS 3 Zrotation Yrotation Xrotation
                JOINT HeadEnd
                {
                  OFFSET 0.003598 16.065403 -1.835379
                  CHANNELS 3 Zrotation Yrotation Xrotation
                }
                JOINT Jaw
                {
                  OFFSET 0.002637 0.475592 3.094941
                  CHANNELS 3 Zrotation Yrotation Xrotation
                }
                JOINT LeftEye
                {
                  OFFSET 3.206381 5.380205 7.586883
                  CHANNELS 3 Zrotation Yrotation Xrotation
                }
                JOINT RightEye
                {
                  OFFSET -3.22244 5.361869 7.558234
                  CHANNELS 3 Zrotation Yrotation Xrotation
                }
              }
            }
          }
          JOINT LeftShoulder
          {
            OFFSET 1.621652 23.237164 5.113413
            CHANNELS 3 Zrotation Yrotation Xrotation
            JOINT LeftArm
            {
              OFFSET 14.919846 2e-06 -5.502326
              CHANNELS 3 Zrotation Yrotation Xrotation
              JOINT LeftForeArm
              {
                OFFSET 28.739307 0.0 -0.002588
                CHANNELS 3 Zrotation Yrotation Xrotation
                JOINT LeftHand
                {
                  OFFSET 27.093981 -1e-06 0.002609
                  CHANNELS 3 Zrotation Yrotation Xrotation
                  JOINT LeftHandThumb1
                  {
                    OFFSET 2.276482 -1.392045 3.191413
                    CHANNELS 3 Zrotation Yrotation Xrotation
                    JOINT LeftHandThumb2
                    {
                      OFFSET 4.012836 -1.828127 1.641654
                      CHANNELS 3 Zrotation Yrotation Xrotation
                      JOINT LeftHandThumb3
                      {
                        OFFSET 2.798515 0.0 -3e-06
                        CHANNELS 3 Zrotation Yrotation Xrotation
                        JOINT LeftHandThumbEnd
                        {
                          OFFSET 3.180793 -4e-06 4e-06
                          CHANNELS 3 Zrotation Yrotation Xrotation
                        }
                      }
                    }
                  }
                  JOINT LeftHandIndex1
                  {
                    OFFSET 3.247555 -0.531998 2.296169
                    CHANNELS 3 Zrotation Yrotation Xrotation
                    JOINT LeftHandIndex2
                    {
                      OFFSET 6.364578 0.01206 0.1786
                      CHANNELS 3 Zrotation Yrotation Xrotation
                      JOINT LeftHandIndex3
                      {
                        OFFSET 3.662364 0.0 0.0
                        CHANNELS 3 Zrotation Yrotation Xrotation
                        JOINT LeftHandIndex4
                        {
                          OFFSET 2.329242 4e-06 4e-06
                          CHANNELS 3 Zrotation Yrotation Xrotation
                          JOINT LeftHandIndexEnd
                          {
                            OFFSET 2.759615 -0.180537 -0.113024
                            CHANNELS 3 Zrotation Yrotation Xrotation
                          }
                        }
                      }
                    }
                  }
                  JOINT LeftHandMiddle1
                  {
                    OFFSET 3.163495 0.240981 1.000332
                    CHANNELS 3 Zrotation Yrotation Xrotation
                    JOINT LeftHandMiddle2
                    {
                      OFFSET 6.19078 -0.259278 -1.002548
                      CHANNELS 3 Zrotation Yrotation Xrotation
                      JOINT LeftHandMiddle3
                      {
                        OFFSET 4.35652 -4e-06 -1e-06
                        CHANNELS 3 Zrotation Yrotation Xrotation
                        JOINT LeftHandMiddle4
                        {
                          OFFSET 2.996877 -8e-06 0.0
                          CHANNELS 3 Zrotation Yrotation Xrotation
                          JOINT LeftHandMiddleEnd
                          {
                            OFFSET 2.304287 -0.294569 -0.031741
                            CHANNELS 3 Zrotation Yrotation Xrotation
                          }
                        }
                      }
                    }
                  }
                  JOINT LeftHandRing1
                  {
                    OFFSET 2.882643 -0.053652 -0.322543
                    CHANNELS 3 Zrotation Yrotation Xrotation
                    JOINT LeftHandRing2
                    {
                      OFFSET 5.854541 -0.486202 -1.373841
                      CHANNELS 3 Zrotation Yrotation Xrotation
                      JOINT LeftHandRing3
                      {
                        OFFSET 4.350578 0.0 3e-06
                        CHANNELS 3 Zrotation Yrotation Xrotation
                        JOINT LeftHandRing4
                        {
                          OFFSET 2.651321 7e-06 2e-06
                          CHANNELS 3 Zrotation Yrotation Xrotation
                          JOINT LeftHandRingEnd
                          {
                            OFFSET 1.936105 0.077687 -7.1e-05
                            CHANNELS 3 Zrotation Yrotation Xrotation
                          }
                        }
                      }
                    }
                  }
                  JOINT LeftHandPinky1
                  {
                    OFFSET 2.8655 -0.310005 -1.600378
                    CHANNELS 3 Zrotation Yrotation Xrotation
                    JOINT LeftHandPinky2
                    {
                      OFFSET 5.087849 -1.331141 -1.77123
                      CHANNELS 3 Zrotation Yrotation Xrotation
                      JOINT LeftHandPinky3
                      {
                        OFFSET 3.070974 4e-06 0.0
                        CHANNELS 3 Zrotation Yrotation Xrotation
                        JOINT LeftHandPinky4
                        {
                          OFFSET 1.549672 0.0 1e-06
                          CHANNELS 3 Zrotation Yrotation Xrotation
                          JOINT LeftHandPinkyEnd
                          {
                            OFFSET 1.944893 -0.157802 0.057219
                            CHANNELS 3 Zrotation Yrotation Xrotation
                          }
                        }
                      }
                    }
                  }
                }
              }
            }
          }
          JOINT RightShoulder
          {
            OFFSET -1.380118 23.180309 5.214158
            CHANNELS 3 Zrotation Yrotation Xrotation
            JOINT RightArm
            {
              OFFSET -15.037196 1.2e-05 -5.545604
              CHANNELS 3 Zrotation Yrotation Xrotation
              JOINT RightForeArm
              {
                OFFSET -28.736639 2e-06 -0.002597
                CHANNELS 3 Zrotation Yrotation Xrotation
                JOINT RightHand
                {
                  OFFSET -27.133619 -0.0 0.002613
                  CHANNELS 3 Zrotation Yrotation Xrotation
                  JOINT RightHandThumb1
                  {
                    OFFSET -2.274032 -1.383988 3.163127
                    CHANNELS 3 Zrotation Yrotation Xrotation
                    JOINT RightHandThumb2
                    {
                      OFFSET -4.011429 -1.827466 1.640914
                      CHANNELS 3 Zrotation Yrotation Xrotation
                      JOINT RightHandThumb3
                      {
                        OFFSET -2.794935 -4e-06 -3e-06
                        CHANNELS 3 Zrotation Yrotation Xrotation
                        JOINT RightHandThumbEnd
                        {
                          OFFSET -3.183852 4e-06 1e-06
                          CHANNELS 3 Zrotation Yrotation Xrotation
                        }
                      }
                    }
                  }
                  JOINT RightHandIndex1
                  {
                    OFFSET -3.253266 -0.520057 2.282866
                    CHANNELS 3 Zrotation Yrotation Xrotation
                    JOINT RightHandIndex2
                    {
                      OFFSET -6.341917 0.012471 0.178266
                      CHANNELS 3 Zrotation Yrotation Xrotation
                      JOINT RightHandIndex3
                      {
                        OFFSET -3.654871 -8e-06 -0.0
                        CHANNELS 3 Zrotation Yrotation Xrotation
                        JOINT RightHandIndex4
                        {
                          OFFSET -2.327586 0.0 1e-06
                          CHANNELS 3 Zrotation Yrotation Xrotation
                          JOINT RightHandIndexEnd
                          {
                            OFFSET -2.76179 -0.180656 -0.113078
                            CHANNELS 3 Zrotation Yrotation Xrotation
                          }
                        }
                      }
                    }
                  }
                  JOINT RightHandMiddle1
                  {
                    OFFSET -3.168106 0.246593 1.00103
                    CHANNELS 3 Zrotation Yrotation Xrotation
                    JOINT RightHandMiddle2
                    {
                      OFFSET -6.180828 -0.258836 -1.000895
                      CHANNELS 3 Zrotation Yrotation Xrotation
                      JOINT RightHandMiddle3
                      {
                        OFFSET -4.348901 0.0 -0.0
                        CHANNELS 3 Zrotation Yrotation Xrotation
                        JOINT RightHandMiddle4
                        {
                          OFFSET -3.00024 -4e-06 -2e-06
                          CHANNELS 3 Zrotation Yrotation Xrotation
                          JOINT RightHandMiddleEnd
                          {
                            OFFSET -2.30252 -0.29437 -0.031706
                            CHANNELS 3 Zrotation Yrotation Xrotation
                          }
                        }
                      }
                    }
                  }
                  JOINT RightHandRing1
                  {
                    OFFSET -2.88569 -0.067952 -0.308858
                    CHANNELS 3 Zrotation Yrotation Xrotation
                    JOINT RightHandRing2
                    {
                      OFFSET -5.854198 -0.48613 -1.373731
                      CHANNELS 3 Zrotation Yrotation Xrotation
                      JOINT RightHandRing3
                      {
                        OFFSET -4.33881 -4e-06 -0.0
                        CHANNELS 3 Zrotation Yrotation Xrotation
                        JOINT RightHandRing4
                        {
                          OFFSET -2.654903 -4e-06 4e-06
                          CHANNELS 3 Zrotation Yrotation Xrotation
                          JOINT RightHandRingEnd
                          {
                            OFFSET -1.933568 0.077527 -5.2e-05
                            CHANNELS 3 Zrotation Yrotation Xrotation
                          }
                        }
                      }
                    }
                  }
                  JOINT RightHandPinky1
                  {
                    OFFSET -2.866425 -0.342796 -1.584145
                    CHANNELS 3 Zrotation Yrotation Xrotation
                    JOINT RightHandPinky2
                    {
                      OFFSET -5.091371 -1.332055 -1.772385
                      CHANNELS 3 Zrotation Yrotation Xrotation
                      JOINT RightHandPinky3
                      {
                        OFFSET -3.062664 -4e-06 1e-06
                        CHANNELS 3 Zrotation Yrotation Xrotation
                        JOINT RightHandPinky4
                        {
                          OFFSET -1.546529 4e-06 -2e-06
                          CHANNELS 3 Zrotation Yrotation Xrotation
                          JOINT RightHandPinkyEnd
                          {
                            OFFSET -1.945119 -0.157718 0.057211
                            CHANNELS 3 Zrotation Yrotation Xrotation
                          }
                        }
                      }
                    }
                  }
                }
              }
            }
          }
        }
      }
    }
    JOINT LeftLeg
    {
      OFFSET 10.043214 -8.434526 2.595655
      CHANNELS 3 Zrotation Yrotation Xrotation
      JOINT LeftShin
      {
        OFFSET -1e-06 -43.221752 -0.802913
        CHANNELS 3 Zrotation Yrotation Xrotation
        JOINT LeftFoot
        {
          OFFSET 1e-06 -42.155094 -3.481523
          CHANNELS 3 Zrotation Yrotation Xrotation
          JOINT LeftToeBase
          {
            OFFSET 0.0 -5.059472 13.231529
            CHANNELS 3 Zrotation Yrotation Xrotation
            JOINT LeftToeEnd
            {
              OFFSET -0.009607 -1.647619 6.513017
              CHANNELS 3 Zrotation Yrotation Xrotation
            }
          }
        }
      }
    }
    JOINT RightLeg
    {
      OFFSET -10.047278 -8.29526 2.620317
      CHANNELS 3 Zrotation Yrotation Xrotation
      JOINT RightShin
      {
        OFFSET 1e-06 -43.362206 -0.805556
        CHANNELS 3 Zrotation Yrotation Xrotation
        JOINT RightFoot
        {
          OFFSET 2e-06 -42.117393 -3.478398
          CHANNELS 3 Zrotation Yrotation Xrotation
          JOINT RightToeBase
          {
            OFFSET -0.0 -5.079609 13.284196
            CHANNELS 3 Zrotation Yrotation Xrotation
            JOINT RightToeEnd
            {
              OFFSET 0.009532 -1.634378 6.460591
              CHANNELS 3 Zrotation Yrotation Xrotation
            }
          }
        }
      }
    }
  }
}
MOTION
Frames: 4
Frame Time: 0.03333333333333333
0.363713 0.0 0.403346 0.0 0.642538 0.0 0.0 100.062477 0.0 0.112144 -0.003391 1.915051 0.24339 -0.110706 -3.438463 -0.561591 0.25141 -6.058394 -0.85111 -2.173264 11.458826 1.649278 2.22872 6.489271 -0.91943 -0.938184 -3.624784 1.290769 -2.978866 -6.137163 7.7e-05 -2.2e-05 6e-06 0.000133 -0.024939 0.027621 0.694277 -3.740087 -10.612344 -0.695491 3.695713 -10.608837 -14.608359 -7.797164 13.148759 -58.436504 0.485704 10.565381 0.325152 -39.350491 -0.103056 -3.437451 -1.056833 3.075568 -5.882107 9.861284 0.702591 -10.936874 -0.360577 7.156207 3e-06 8.774828 1e-06 -15.776967 18.432571 6.318543 -1.844033 2.498504 -2.507281 -10.163604 4.678944 4.621109 -20.976032 -8e-06 1e-06 -21.226295 2.451692 -3.594002 2e-06 -6e-06 -0.0 -1.362682 2.240798 -0.746326 -21.334921 0.584905 3.008323 -13.821218 -6e-06 -0.0 -23.88718 -0.249085 -0.83948 -60.542953 2.887408 -1.24009 -0.294024 1.679686 0.833255 -14.218215 0.093212 1.300579 -34.212067 -0.287573 0.967171 -20.033224 0.964533 1.212845 -0.0 0.0 0.0 -3.440389 0.788233 0.501655 -15.928191 -3.167313 2.999706 -6.338827 -2e-06 -2e-06 -18.123453 3.648176 -4.90567 -4e-06 0.0 -3e-06 18.620411 11.812077 17.122561 55.447872 2.974866 8.94438 -176.376495 84.442612 -176.637192 -17.059072 17.99131 4.857403 2.243541 -5.255034 -3.180158 14.282887 -0.826595 6.952503 -2e-06 -12.690601 1e-06 15.725983 -17.843615 2.869207 1.665665 -1.955921 -2.878299 4.727799 -4.170586 4.993923 11.020526 3e-06 -1e-06 12.109051 -3.735714 -2.866785 -0.0 1e-06 -0.0 1.291985 -1.928549 -1.498089 14.800125 0.567468 3.865607 14.24257 -1.341736 -6.660657 19.631968 0.143927 -0.648245 50.430779 -0.781171 -6.2789 0.353029 -1.51115 -0.031939 20.222788 3.684309 2.31663 18.78727 4e-06 -1e-06 10.751625 -0.479869 1.397906 0.0 1e-06 2e-06 3.273806 0.305946 -0.580111 21.486807 11.830373 2.266133 8.162928 1e-06 0.0 18.399076 -3.798985 -4.940575 3e-06 -1e-06 -3e-06 5.928497 11.286777 -3.201961 -0.002687 -0.051039 5.918106 -9.449212 -0.233587 -3.728734 1.628055 -2.036852 -0.859632 -0.0 0.0 2e-06 -5.490683 -19.307367 -3.122291 -0.014984 -0.009645 7.774719 8.795238 -0.006993 -4.90242 -1.418087 0.863138 -0.813021 0.0 0.0 -1e-06 
0.344609 0.0 0.362468 0.0 0.218566 0.0 0.0 100.062202 0.0 0.086554 -0.00269 1.855655 0.256629 -0.133979 -3.418995 -0.560745 0.161238 -6.043228 -0.886864 -2.255827 11.392853 1.551468 2.255887 6.148481 -0.867484 -0.808862 -3.62225 1.281678 -2.854144 -6.329123 7.7e-05 -2.2e-05 6e-06 -0.000431 -0.025499 0.032988 0.690653 -3.740913 -10.608453 -0.693209 3.69559 -10.60432 -14.591487 -7.943552 13.130111 -58.401363 0.468436 10.641068 0.396315 -39.311344 -0.121439 -3.5884 -1.130238 3.114169 -5.882111 9.861293 0.70259 -10.936881 -0.360575 7.156209 1e-06 8.774831 -1e-06 -15.764721 18.469944 6.366293 -1.844035 2.498506 -2.507277 -10.163607 4.678948 4.62111 -20.97604 -4e-06 2e-06 -21.226301 2.451699 -3.594 2e-06 -6e-06 -0.0 -1.362684 2.240799 -0.746323 -21.33493 0.584911 3.008324 -13.821223 -3e-06 0.0 -23.88719 -0.249079 -0.839483 -60.548431 2.893603 -1.213475 -0.294025 1.679688 0.833257 -14.218221 0.093215 1.300583 -34.212082 -0.287565 0.967171 -20.03323 0.964536 1.212844 -0.0 0.0 1e-06 -3.440391 0.788235 0.501654 -15.928201 -3.167312 2.99971 -6.33883 -1e-06 -1e-06 -18.123463 3.648183 -4.905674 -4e-06 0.0 -3e-06 18.616489 11.635317 17.002378 55.708107 2.575739 9.20254 -177.101501 83.883293 -177.362396 -16.860746 17.847105 5.167873 2.243543 -5.255042 -3.180162 14.2829 -0.826596 6.952511 -2e-06 -12.690614 2e-06 15.717363 -17.8403 2.862613 1.665668 -1.955922 -2.878302 4.727803 -4.170591 4.993929 11.020536 2e-06 -1e-06 12.10906 -3.735719 -2.866787 -0.0 1e-06 -1e-06 1.291986 -1.928551 -1.498091 14.800139 0.567468 3.865611 14.242583 -1.341738 -6.660665 19.631979 0.143925 -0.648247 50.409294 -0.771047 -6.283133 0.353029 -1.511152 -0.031939 20.222805 3.684313 2.316632 18.787289 3e-06 -2e-06 10.751637 -0.47987 1.397907 1e-06 1e-06 1e-06 3.273809 0.305946 -0.580111 21.48683 11.830384 2.266135 8.162936 3e-06 -0.0 18.399099 -3.798988 -4.94058 3e-06 -1e-06 -1e-06 5.988293 11.463311 -3.035985 0.00042 -0.045107 5.836314 -9.492482 -0.044382 -3.736832 1.627305 -2.043623 -0.893725 -0.0 0.0 2e-06 -5.438253 -19.041492 -3.219354 -0.018356 -0.000139 7.876242 8.757723 0.10184 -4.797606 -1.420641 0.8718 -0.812495 0.0 0.0 -1e-06 
0.325224 0.0 0.322036 0.0 -0.071695 0.0 0.0 100.06456 0.0 0.06318 -0.002042 1.818289 0.271842 -0.152308 -3.402491 -0.55189 0.071213 -6.029575 -0.911713 -2.330829 11.322064 1.445753 2.287 5.812922 -0.824728 -0.7394 -3.615412 1.251148 -2.739041 -6.529317 7.7e-05 -2.2e-05 6e-06 -0.001108 -0.019586 0.034294 0.687371 -3.734592 -10.602872 -0.691529 3.701499 -10.599477 -14.592686 -8.066938 13.121083 -58.420788 0.392951 10.630535 0.423581 -39.121223 -0.125244 -3.667151 -1.173249 3.208878 -5.882108 9.861288 0.702588 -10.936873 -0.360575 7.156205 0.0 8.774826 -3e-06 -15.756766 18.484314 6.405656 -1.844032 2.498506 -2.507277 -10.163601 4.678946 4.621108 -20.976023 -3e-06 -0.0 -21.226288 2.451698 -3.594003 0.0 -7e-06 -0.0 -1.362682 2.240797 -0.746322 -21.334913 0.584911 3.008324 -13.821213 -2e-06 0.0 -23.887171 -0.249079 -0.839485 -60.544846 2.903673 -1.193644 -0.294024 1.679688 0.833255 -14.218208 0.093216 1.30058 -34.212048 -0.287564 0.967168 -20.033215 0.964536 1.212843 -0.0 0.0 1e-06 -3.440389 0.788234 0.501657 -15.928185 -3.167309 2.999706 -6.338826 0.0 1e-06 -18.123447 3.648184 -4.905671 -4e-06 1e-06 -3e-06 18.600136 11.475255 16.903667 55.939194 2.20384 9.365769 -177.71962 83.336235 -177.96759 -16.721632 17.640114 5.471375 2.243542 -5.255038 -3.180158 14.282888 -0.826595 6.952501 -2e-06 -12.690607 -0.0 15.713367 -17.838182 2.854029 1.665667 -1.955923 -2.878299 4.727798 -4.170589 4.993921 11.020526 1e-06 -2e-06 12.109056 -3.735717 -2.866785 -0.0 1e-06 -1e-06 1.291986 -1.92855 -1.498089 14.800129 0.567468 3.865607 14.242572 -1.341739 -6.66066 19.631969 0.143925 -0.648247 50.40551 -0.773817 -6.29046 0.353029 -1.51115 -0.03194 20.222788 3.684308 2.316629 18.787271 3e-06 -3e-06 10.751625 -0.479868 1.397904 -1e-06 0.0 1e-06 3.273807 0.305947 -0.580111 21.486813 11.830376 2.266133 8.162928 2e-06 -1e-06 18.39908 -3.798985 -4.940577 2e-06 -0.0 -3e-06 6.040222 11.576999 -2.930101 0.000956 -0.039764 5.763879 -9.524803 0.094774 -3.721478 1.626505 -2.049307 -0.944356 -0.0 -0.0 2e-06 -5.38117 -18.825975 -3.288938 -0.018595 0.007236 7.91414 8.722833 0.15423 -4.831196 -1.422171 0.878411 -0.8331 -0.0 -0.0 -1e-06 
0.301146 0.0 0.286269 0.0 -0.255989 0.0 0.0 100.068542 0.0 0.039418 -0.001361 1.795473 0.292619 -0.163582 -3.385248 -0.539375 -0.010601 -6.012539 -0.929492 -2.390831 11.237486 1.354621 2.316596 5.495121 -0.793292 -0.703895 -3.604155 1.200075 -2.65799 -6.720686 7.7e-05 -2.2e-05 6e-06 -0.00185 -0.01456 0.033937 0.685853 -3.729929 -10.598348 -0.691738 3.707035 -10.594921 -14.609852 -8.187132 13.105401 -58.503304 0.32296 10.541208 0.411468 -38.851421 -0.111361 -3.665259 -1.227056 3.31475 -5.882103 9.861282 0.702589 -10.936868 -0.360575 7.156206 1e-06 8.774822 -2e-06 -15.760793 18.482088 6.404151 -1.844032 2.498503 -2.507277 -10.163596 4.678941 4.621108 -20.976017 -5e-06 1e-06 -21.226276 2.451695 -3.593996 2e-06 -6e-06 -1e-06 -1.362681 2.240797 -0.746325 -21.334906 0.584907 3.00832 -13.821208 -3e-06 0.0 -23.887159 -0.24908 -0.839484 -60.514931 2.910791 -1.199081 -0.294026 1.679687 0.833256 -14.218204 0.093214 1.300578 -34.212036 -0.287566 0.96717 -20.033211 0.964535 1.212844 -0.0 0.0 0.0 -3.440388 0.788233 0.501656 -15.928183 -3.16731 2.999704 -6.338823 -1e-06 2e-06 -18.12344 3.648179 -4.905667 -3e-06 1e-06 -2e-06 18.58271 11.338668 16.826416 56.107594 1.84388 9.489823 -177.974304 82.832367 -178.215744 -16.659748 17.4121 5.69596 2.243541 -5.255038 -3.180159 14.28289 -0.826595 6.952502 -2e-06 -12.690604 1e-06 15.717299 -17.841841 2.849766 1.665666 -1.955922 -2.878299 4.727798 -4.170588 4.993923 11.020524 2e-06 -2e-06 12.109053 -3.735717 -2.866785 1e-06 2e-06 -2e-06 1.291986 -1.928549 -1.498089 14.800125 0.567468 3.865608 14.242573 -1.341737 -6.660658 19.631966 0.143925 -0.648246 50.431442 -0.781982 -6.294057 0.353028 -1.51115 -0.03194 20.222788 3.684308 2.31663 18.78727 3e-06 -2e-06 10.751628 -0.479869 1.397905 0.0 1e-06 2e-06 3.273806 0.305946 -0.58011 21.486809 11.830373 2.266133 8.162928 3e-06 -1e-06 18.399078 -3.798986 -4.940575 3e-06 -0.0 -3e-06 6.086859 11.672862 -2.862171 0.0009 -0.037482 5.695877 -9.554249 0.164215 -3.690014 1.625338 -2.058302 -0.994464 -0.0 0.0 2e-06 -5.324216 -18.682209 -3.325101 -0.017912 0.013298 7.900758 8.688147 0.168389 -4.753593 -1.422829 0.880484 -0.867336 0.0 0.0 -1e-06 
